<mxfile host="app.diagrams.net" modified="2023-04-13T23:21:59.940Z" agent="Mozilla/5.0 (Windows NT 10.0; Win64; x64) AppleWebKit/537.36 (KHTML, like Gecko) Chrome/111.0.0.0 Safari/537.36" etag="Kkd11T_T-E9t4Po5RsTQ" version="21.1.7" type="device">
  <diagram name="Page-1" id="Z9gK9LIWbVvcOf8o23d2">
    <mxGraphModel dx="6338" dy="4316" grid="1" gridSize="10" guides="1" tooltips="1" connect="1" arrows="1" fold="1" page="1" pageScale="1" pageWidth="850" pageHeight="1100" math="0" shadow="0">
      <root>
        <mxCell id="0" />
        <mxCell id="1" parent="0" />
        <mxCell id="xJhnfynAFVNyftUKvXe--17" value="Q table" style="shape=table;startSize=50;container=1;collapsible=0;childLayout=tableLayout;strokeColor=#6C8EBF;fontSize=30;fillColor=#dae8fc;strokeWidth=2;fontStyle=1" parent="1" vertex="1">
          <mxGeometry x="50" y="-40" width="740" height="724" as="geometry" />
        </mxCell>
        <mxCell id="xJhnfynAFVNyftUKvXe--33" style="shape=tableRow;horizontal=0;startSize=0;swimlaneHead=0;swimlaneBody=0;strokeColor=default;top=0;left=0;bottom=0;right=0;collapsible=0;dropTarget=0;fillColor=none;points=[[0,0.5],[1,0.5]];portConstraint=eastwest;fontSize=16;strokeWidth=17;" parent="xJhnfynAFVNyftUKvXe--17" vertex="1">
          <mxGeometry y="50" width="740" height="97" as="geometry" />
        </mxCell>
        <mxCell id="xJhnfynAFVNyftUKvXe--34" value="&lt;font style=&quot;font-size: 30px;&quot;&gt;State-Action&lt;/font&gt;" style="shape=partialRectangle;html=1;whiteSpace=wrap;connectable=0;strokeColor=default;overflow=hidden;fillColor=#dae8fc;top=0;left=0;bottom=0;right=0;pointerEvents=1;fontSize=16;strokeWidth=2;" parent="xJhnfynAFVNyftUKvXe--33" vertex="1">
          <mxGeometry width="379" height="97" as="geometry">
            <mxRectangle width="379" height="97" as="alternateBounds" />
          </mxGeometry>
        </mxCell>
        <mxCell id="xJhnfynAFVNyftUKvXe--35" value="&lt;font style=&quot;font-size: 30px;&quot;&gt;Value&lt;/font&gt;" style="shape=partialRectangle;html=1;whiteSpace=wrap;connectable=0;strokeColor=#6c8ebf;overflow=hidden;fillColor=#dae8fc;top=0;left=0;bottom=0;right=0;pointerEvents=1;fontSize=16;strokeWidth=2;" parent="xJhnfynAFVNyftUKvXe--33" vertex="1">
          <mxGeometry x="379" width="361" height="97" as="geometry">
            <mxRectangle width="361" height="97" as="alternateBounds" />
          </mxGeometry>
        </mxCell>
        <mxCell id="xJhnfynAFVNyftUKvXe--18" value="" style="shape=tableRow;horizontal=0;startSize=0;swimlaneHead=0;swimlaneBody=0;strokeColor=inherit;top=0;left=0;bottom=0;right=0;collapsible=0;dropTarget=0;fillColor=none;points=[[0,0.5],[1,0.5]];portConstraint=eastwest;fontSize=16;" parent="xJhnfynAFVNyftUKvXe--17" vertex="1">
          <mxGeometry y="147" width="740" height="95" as="geometry" />
        </mxCell>
        <mxCell id="xJhnfynAFVNyftUKvXe--30" value="&lt;font style=&quot;font-size: 30px;&quot;&gt;&lt;b&gt;—&lt;/b&gt;&lt;/font&gt;" style="shape=partialRectangle;html=1;whiteSpace=wrap;connectable=0;strokeColor=inherit;overflow=hidden;fillColor=none;top=0;left=0;bottom=0;right=0;pointerEvents=1;fontSize=16;" parent="xJhnfynAFVNyftUKvXe--18" vertex="1">
          <mxGeometry width="379" height="95" as="geometry">
            <mxRectangle width="379" height="95" as="alternateBounds" />
          </mxGeometry>
        </mxCell>
        <mxCell id="xJhnfynAFVNyftUKvXe--19" value="&lt;font style=&quot;font-size: 30px;&quot;&gt;0&lt;/font&gt;" style="shape=partialRectangle;html=1;whiteSpace=wrap;connectable=0;strokeColor=inherit;overflow=hidden;fillColor=none;top=0;left=0;bottom=0;right=0;pointerEvents=1;fontSize=16;" parent="xJhnfynAFVNyftUKvXe--18" vertex="1">
          <mxGeometry x="379" width="361" height="95" as="geometry">
            <mxRectangle width="361" height="95" as="alternateBounds" />
          </mxGeometry>
        </mxCell>
        <mxCell id="xJhnfynAFVNyftUKvXe--22" value="" style="shape=tableRow;horizontal=0;startSize=0;swimlaneHead=0;swimlaneBody=0;strokeColor=inherit;top=0;left=0;bottom=0;right=0;collapsible=0;dropTarget=0;fillColor=none;points=[[0,0.5],[1,0.5]];portConstraint=eastwest;fontSize=16;" parent="xJhnfynAFVNyftUKvXe--17" vertex="1">
          <mxGeometry y="242" width="740" height="99" as="geometry" />
        </mxCell>
        <mxCell id="xJhnfynAFVNyftUKvXe--31" value="—" style="shape=partialRectangle;html=1;whiteSpace=wrap;connectable=0;strokeColor=inherit;overflow=hidden;fillColor=none;top=0;left=0;bottom=0;right=0;pointerEvents=1;fontSize=30;fontStyle=1" parent="xJhnfynAFVNyftUKvXe--22" vertex="1">
          <mxGeometry width="379" height="99" as="geometry">
            <mxRectangle width="379" height="99" as="alternateBounds" />
          </mxGeometry>
        </mxCell>
        <mxCell id="xJhnfynAFVNyftUKvXe--23" value="&lt;font style=&quot;font-size: 30px;&quot;&gt;0&lt;/font&gt;" style="shape=partialRectangle;html=1;whiteSpace=wrap;connectable=0;strokeColor=inherit;overflow=hidden;fillColor=none;top=0;left=0;bottom=0;right=0;pointerEvents=1;fontSize=16;" parent="xJhnfynAFVNyftUKvXe--22" vertex="1">
          <mxGeometry x="379" width="361" height="99" as="geometry">
            <mxRectangle width="361" height="99" as="alternateBounds" />
          </mxGeometry>
        </mxCell>
        <mxCell id="xJhnfynAFVNyftUKvXe--26" value="" style="shape=tableRow;horizontal=0;startSize=0;swimlaneHead=0;swimlaneBody=0;strokeColor=inherit;top=0;left=0;bottom=0;right=0;collapsible=0;dropTarget=0;fillColor=none;points=[[0,0.5],[1,0.5]];portConstraint=eastwest;fontSize=16;" parent="xJhnfynAFVNyftUKvXe--17" vertex="1">
          <mxGeometry y="341" width="740" height="92" as="geometry" />
        </mxCell>
        <mxCell id="xJhnfynAFVNyftUKvXe--32" value="—" style="shape=partialRectangle;html=1;whiteSpace=wrap;connectable=0;strokeColor=inherit;overflow=hidden;fillColor=none;top=0;left=0;bottom=0;right=0;pointerEvents=1;fontSize=30;fontStyle=1" parent="xJhnfynAFVNyftUKvXe--26" vertex="1">
          <mxGeometry width="379" height="92" as="geometry">
            <mxRectangle width="379" height="92" as="alternateBounds" />
          </mxGeometry>
        </mxCell>
        <mxCell id="xJhnfynAFVNyftUKvXe--27" value="&lt;font style=&quot;font-size: 30px;&quot;&gt;0&lt;/font&gt;" style="shape=partialRectangle;html=1;whiteSpace=wrap;connectable=0;strokeColor=inherit;overflow=hidden;fillColor=none;top=0;left=0;bottom=0;right=0;pointerEvents=1;fontSize=16;" parent="xJhnfynAFVNyftUKvXe--26" vertex="1">
          <mxGeometry x="379" width="361" height="92" as="geometry">
            <mxRectangle width="361" height="92" as="alternateBounds" />
          </mxGeometry>
        </mxCell>
        <mxCell id="xJhnfynAFVNyftUKvXe--38" value="" style="shape=tableRow;horizontal=0;startSize=0;swimlaneHead=0;swimlaneBody=0;strokeColor=inherit;top=0;left=0;bottom=0;right=0;collapsible=0;dropTarget=0;fillColor=none;points=[[0,0.5],[1,0.5]];portConstraint=eastwest;fontSize=16;" parent="xJhnfynAFVNyftUKvXe--17" vertex="1">
          <mxGeometry y="433" width="740" height="99" as="geometry" />
        </mxCell>
        <mxCell id="xJhnfynAFVNyftUKvXe--39" value="—" style="shape=partialRectangle;html=1;whiteSpace=wrap;connectable=0;strokeColor=inherit;overflow=hidden;fillColor=none;top=0;left=0;bottom=0;right=0;pointerEvents=1;fontSize=30;fontStyle=1" parent="xJhnfynAFVNyftUKvXe--38" vertex="1">
          <mxGeometry width="379" height="99" as="geometry">
            <mxRectangle width="379" height="99" as="alternateBounds" />
          </mxGeometry>
        </mxCell>
        <mxCell id="xJhnfynAFVNyftUKvXe--40" value="0" style="shape=partialRectangle;html=1;whiteSpace=wrap;connectable=0;strokeColor=inherit;overflow=hidden;fillColor=none;top=0;left=0;bottom=0;right=0;pointerEvents=1;fontSize=30;" parent="xJhnfynAFVNyftUKvXe--38" vertex="1">
          <mxGeometry x="379" width="361" height="99" as="geometry">
            <mxRectangle width="361" height="99" as="alternateBounds" />
          </mxGeometry>
        </mxCell>
        <mxCell id="xJhnfynAFVNyftUKvXe--42" value="" style="shape=tableRow;horizontal=0;startSize=0;swimlaneHead=0;swimlaneBody=0;strokeColor=inherit;top=0;left=0;bottom=0;right=0;collapsible=0;dropTarget=0;fillColor=none;points=[[0,0.5],[1,0.5]];portConstraint=eastwest;fontSize=16;" parent="xJhnfynAFVNyftUKvXe--17" vertex="1">
          <mxGeometry y="532" width="740" height="95" as="geometry" />
        </mxCell>
        <mxCell id="xJhnfynAFVNyftUKvXe--43" value="—" style="shape=partialRectangle;html=1;whiteSpace=wrap;connectable=0;strokeColor=inherit;overflow=hidden;fillColor=none;top=0;left=0;bottom=0;right=0;pointerEvents=1;fontSize=30;fontStyle=1" parent="xJhnfynAFVNyftUKvXe--42" vertex="1">
          <mxGeometry width="379" height="95" as="geometry">
            <mxRectangle width="379" height="95" as="alternateBounds" />
          </mxGeometry>
        </mxCell>
        <mxCell id="xJhnfynAFVNyftUKvXe--44" value="0" style="shape=partialRectangle;html=1;whiteSpace=wrap;connectable=0;strokeColor=inherit;overflow=hidden;fillColor=none;top=0;left=0;bottom=0;right=0;pointerEvents=1;fontSize=30;" parent="xJhnfynAFVNyftUKvXe--42" vertex="1">
          <mxGeometry x="379" width="361" height="95" as="geometry">
            <mxRectangle width="361" height="95" as="alternateBounds" />
          </mxGeometry>
        </mxCell>
        <mxCell id="xJhnfynAFVNyftUKvXe--45" value="" style="shape=tableRow;horizontal=0;startSize=0;swimlaneHead=0;swimlaneBody=0;strokeColor=inherit;top=0;left=0;bottom=0;right=0;collapsible=0;dropTarget=0;fillColor=none;points=[[0,0.5],[1,0.5]];portConstraint=eastwest;fontSize=16;" parent="xJhnfynAFVNyftUKvXe--17" vertex="1">
          <mxGeometry y="627" width="740" height="97" as="geometry" />
        </mxCell>
        <mxCell id="xJhnfynAFVNyftUKvXe--46" value="—" style="shape=partialRectangle;html=1;whiteSpace=wrap;connectable=0;strokeColor=inherit;overflow=hidden;fillColor=none;top=0;left=0;bottom=0;right=0;pointerEvents=1;fontSize=30;fontStyle=1" parent="xJhnfynAFVNyftUKvXe--45" vertex="1">
          <mxGeometry width="379" height="97" as="geometry">
            <mxRectangle width="379" height="97" as="alternateBounds" />
          </mxGeometry>
        </mxCell>
        <mxCell id="xJhnfynAFVNyftUKvXe--47" value="0" style="shape=partialRectangle;html=1;whiteSpace=wrap;connectable=0;strokeColor=inherit;overflow=hidden;fillColor=none;top=0;left=0;bottom=0;right=0;pointerEvents=1;fontSize=30;" parent="xJhnfynAFVNyftUKvXe--45" vertex="1">
          <mxGeometry x="379" width="361" height="97" as="geometry">
            <mxRectangle width="361" height="97" as="alternateBounds" />
          </mxGeometry>
        </mxCell>
        <mxCell id="924K4C8H1iJHEnkEFE0U-1" value="" style="endArrow=none;html=1;rounded=0;strokeWidth=2;exitX=0.999;exitY=-0.003;exitDx=0;exitDy=0;exitPerimeter=0;entryX=0.999;entryY=0.998;entryDx=0;entryDy=0;entryPerimeter=0;startSize=17;endSize=30;sourcePerimeterSpacing=13;targetPerimeterSpacing=14;strokeColor=#6C8EBF;" edge="1" parent="xJhnfynAFVNyftUKvXe--17" source="xJhnfynAFVNyftUKvXe--33" target="xJhnfynAFVNyftUKvXe--33">
          <mxGeometry width="50" height="50" relative="1" as="geometry">
            <mxPoint x="800" y="30" as="sourcePoint" />
            <mxPoint x="790" y="60" as="targetPoint" />
            <Array as="points" />
          </mxGeometry>
        </mxCell>
        <mxCell id="924K4C8H1iJHEnkEFE0U-2" value="" style="endArrow=none;html=1;rounded=0;strokeWidth=2;entryX=0.512;entryY=1.005;entryDx=0;entryDy=0;entryPerimeter=0;startSize=17;endSize=30;sourcePerimeterSpacing=13;targetPerimeterSpacing=14;strokeColor=#6C8EBF;exitX=0.51;exitY=0.005;exitDx=0;exitDy=0;exitPerimeter=0;" edge="1" parent="xJhnfynAFVNyftUKvXe--17" source="xJhnfynAFVNyftUKvXe--33" target="xJhnfynAFVNyftUKvXe--33">
          <mxGeometry width="50" height="50" relative="1" as="geometry">
            <mxPoint x="380" y="50" as="sourcePoint" />
            <mxPoint x="380" y="133" as="targetPoint" />
            <Array as="points" />
          </mxGeometry>
        </mxCell>
        <mxCell id="924K4C8H1iJHEnkEFE0U-5" value="" style="endArrow=none;html=1;rounded=0;strokeWidth=2;exitX=0;exitY=-0.004;exitDx=0;exitDy=0;exitPerimeter=0;entryX=0;entryY=1.002;entryDx=0;entryDy=0;entryPerimeter=0;startSize=17;endSize=30;sourcePerimeterSpacing=13;targetPerimeterSpacing=14;strokeColor=#6C8EBF;" edge="1" parent="xJhnfynAFVNyftUKvXe--17" source="xJhnfynAFVNyftUKvXe--33" target="xJhnfynAFVNyftUKvXe--33">
          <mxGeometry width="50" height="50" relative="1" as="geometry">
            <mxPoint x="10" y="50" as="sourcePoint" />
            <mxPoint x="10" y="140" as="targetPoint" />
            <Array as="points" />
          </mxGeometry>
        </mxCell>
        <mxCell id="xJhnfynAFVNyftUKvXe--2" value="&lt;font style=&quot;font-size: 30px;&quot;&gt;Action&lt;/font&gt;" style="rounded=1;whiteSpace=wrap;html=1;fillColor=#e1d5e7;strokeColor=#9673a6;" parent="1" vertex="1">
          <mxGeometry x="-360" y="440" width="280" height="80" as="geometry" />
        </mxCell>
        <mxCell id="xJhnfynAFVNyftUKvXe--3" value="&lt;font style=&quot;font-size: 30px;&quot;&gt;State&lt;/font&gt;" style="rounded=1;whiteSpace=wrap;html=1;fillColor=#f8cecc;strokeColor=#b85450;" parent="1" vertex="1">
          <mxGeometry x="-360" y="200" width="280" height="80" as="geometry" />
        </mxCell>
        <mxCell id="xJhnfynAFVNyftUKvXe--48" value="Q-Value" style="rounded=1;whiteSpace=wrap;html=1;fillColor=#d5e8d4;strokeColor=#82b366;fontSize=30;" parent="1" vertex="1">
          <mxGeometry x="920" y="320" width="280" height="80" as="geometry" />
        </mxCell>
        <mxCell id="xJhnfynAFVNyftUKvXe--55" value="" style="endArrow=classic;html=1;rounded=0;exitX=1;exitY=0.5;exitDx=0;exitDy=0;fillColor=#6a00ff;strokeColor=#3700CC;" parent="1" source="xJhnfynAFVNyftUKvXe--3" edge="1">
          <mxGeometry width="50" height="50" relative="1" as="geometry">
            <mxPoint x="90" y="310" as="sourcePoint" />
            <mxPoint x="50" y="240" as="targetPoint" />
          </mxGeometry>
        </mxCell>
        <mxCell id="xJhnfynAFVNyftUKvXe--56" value="" style="endArrow=classic;html=1;rounded=0;exitX=1;exitY=0.5;exitDx=0;exitDy=0;fillColor=#6a00ff;strokeColor=#3700CC;entryX=-0.003;entryY=0.848;entryDx=0;entryDy=0;entryPerimeter=0;" parent="1" source="xJhnfynAFVNyftUKvXe--2" target="xJhnfynAFVNyftUKvXe--38" edge="1">
          <mxGeometry width="50" height="50" relative="1" as="geometry">
            <mxPoint x="10" y="290" as="sourcePoint" />
            <mxPoint x="50" y="470" as="targetPoint" />
          </mxGeometry>
        </mxCell>
        <mxCell id="xJhnfynAFVNyftUKvXe--57" value="" style="endArrow=classic;html=1;rounded=0;entryX=0;entryY=0.5;entryDx=0;entryDy=0;fillColor=#6a00ff;strokeColor=#3700CC;" parent="1" target="xJhnfynAFVNyftUKvXe--48" edge="1">
          <mxGeometry width="50" height="50" relative="1" as="geometry">
            <mxPoint x="790" y="360" as="sourcePoint" />
            <mxPoint x="220" y="240" as="targetPoint" />
          </mxGeometry>
        </mxCell>
        <mxCell id="xJhnfynAFVNyftUKvXe--58" value="&lt;font style=&quot;font-size: 50px;&quot;&gt;Q Learning&lt;/font&gt;" style="text;html=1;strokeColor=none;fillColor=none;align=center;verticalAlign=middle;whiteSpace=wrap;rounded=0;fontSize=50;fontStyle=1" parent="1" vertex="1">
          <mxGeometry x="247.5" y="-130" width="310" height="30" as="geometry" />
        </mxCell>
        <mxCell id="xJhnfynAFVNyftUKvXe--59" value="&lt;font style=&quot;font-size: 50px;&quot;&gt;Deep Q Learning&lt;/font&gt;" style="text;html=1;strokeColor=none;fillColor=none;align=center;verticalAlign=middle;whiteSpace=wrap;rounded=0;fontSize=50;fontStyle=1" parent="1" vertex="1">
          <mxGeometry x="217.5" y="780" width="405" height="30" as="geometry" />
        </mxCell>
        <mxCell id="xJhnfynAFVNyftUKvXe--60" value="&lt;font style=&quot;font-size: 30px;&quot;&gt;State&lt;/font&gt;" style="rounded=1;whiteSpace=wrap;html=1;fillColor=#f8cecc;strokeColor=#b85450;" parent="1" vertex="1">
          <mxGeometry x="-350" y="1080" width="280" height="80" as="geometry" />
        </mxCell>
        <mxCell id="xJhnfynAFVNyftUKvXe--61" value="" style="endArrow=classic;html=1;rounded=0;exitX=1;exitY=0.5;exitDx=0;exitDy=0;entryX=0;entryY=0.45;entryDx=0;entryDy=0;entryPerimeter=0;fillColor=#6a00ff;strokeColor=#3700CC;" parent="1" source="xJhnfynAFVNyftUKvXe--60" target="xJhnfynAFVNyftUKvXe--63" edge="1">
          <mxGeometry width="50" height="50" relative="1" as="geometry">
            <mxPoint x="110" y="1120" as="sourcePoint" />
            <mxPoint x="28" y="1067" as="targetPoint" />
          </mxGeometry>
        </mxCell>
        <mxCell id="xJhnfynAFVNyftUKvXe--63" value="" style="rounded=0;whiteSpace=wrap;html=1;strokeWidth=2;strokeColor=#0072CE;" parent="1" vertex="1">
          <mxGeometry x="60" y="840" width="725" height="620" as="geometry" />
        </mxCell>
        <mxCell id="xJhnfynAFVNyftUKvXe--67" value="" style="ellipse;whiteSpace=wrap;html=1;aspect=fixed;fillColor=#dae8fc;strokeColor=#6c8ebf;" parent="1" vertex="1">
          <mxGeometry x="280" y="910" width="80" height="80" as="geometry" />
        </mxCell>
        <mxCell id="xJhnfynAFVNyftUKvXe--68" value="" style="ellipse;whiteSpace=wrap;html=1;aspect=fixed;fillColor=#dae8fc;strokeColor=#6c8ebf;" parent="1" vertex="1">
          <mxGeometry x="280" y="1010" width="80" height="80" as="geometry" />
        </mxCell>
        <mxCell id="xJhnfynAFVNyftUKvXe--74" value="" style="ellipse;whiteSpace=wrap;html=1;aspect=fixed;fillColor=#dae8fc;strokeColor=#6c8ebf;" parent="1" vertex="1">
          <mxGeometry x="280" y="1110" width="80" height="80" as="geometry" />
        </mxCell>
        <mxCell id="xJhnfynAFVNyftUKvXe--83" style="edgeStyle=orthogonalEdgeStyle;rounded=0;orthogonalLoop=1;jettySize=auto;html=1;exitX=0.5;exitY=1;exitDx=0;exitDy=0;entryX=0.543;entryY=0.667;entryDx=0;entryDy=0;entryPerimeter=0;" parent="1" source="xJhnfynAFVNyftUKvXe--59" target="xJhnfynAFVNyftUKvXe--59" edge="1">
          <mxGeometry relative="1" as="geometry" />
        </mxCell>
        <mxCell id="xJhnfynAFVNyftUKvXe--84" value="" style="ellipse;whiteSpace=wrap;html=1;aspect=fixed;fillColor=#dae8fc;strokeColor=#6c8ebf;" parent="1" vertex="1">
          <mxGeometry x="280" y="1210" width="80" height="80" as="geometry" />
        </mxCell>
        <mxCell id="xJhnfynAFVNyftUKvXe--85" value="" style="ellipse;whiteSpace=wrap;html=1;aspect=fixed;fillColor=#dae8fc;strokeColor=#6c8ebf;" parent="1" vertex="1">
          <mxGeometry x="280" y="1310" width="80" height="80" as="geometry" />
        </mxCell>
        <mxCell id="xJhnfynAFVNyftUKvXe--86" value="" style="ellipse;whiteSpace=wrap;html=1;aspect=fixed;fillColor=#d5e8d4;strokeColor=#82b366;" parent="1" vertex="1">
          <mxGeometry x="480" y="910" width="80" height="80" as="geometry" />
        </mxCell>
        <mxCell id="xJhnfynAFVNyftUKvXe--87" value="" style="ellipse;whiteSpace=wrap;html=1;aspect=fixed;fillColor=#d5e8d4;strokeColor=#82b366;" parent="1" vertex="1">
          <mxGeometry x="480" y="1010" width="80" height="80" as="geometry" />
        </mxCell>
        <mxCell id="xJhnfynAFVNyftUKvXe--88" value="" style="ellipse;whiteSpace=wrap;html=1;aspect=fixed;fillColor=#d5e8d4;strokeColor=#82b366;" parent="1" vertex="1">
          <mxGeometry x="480" y="1110" width="80" height="80" as="geometry" />
        </mxCell>
        <mxCell id="xJhnfynAFVNyftUKvXe--89" value="" style="ellipse;whiteSpace=wrap;html=1;aspect=fixed;fillColor=#d5e8d4;strokeColor=#82b366;" parent="1" vertex="1">
          <mxGeometry x="480" y="1210" width="80" height="80" as="geometry" />
        </mxCell>
        <mxCell id="xJhnfynAFVNyftUKvXe--90" value="" style="ellipse;whiteSpace=wrap;html=1;aspect=fixed;fillColor=#d5e8d4;strokeColor=#82b366;" parent="1" vertex="1">
          <mxGeometry x="480" y="1310" width="80" height="80" as="geometry" />
        </mxCell>
        <mxCell id="xJhnfynAFVNyftUKvXe--91" value="" style="ellipse;whiteSpace=wrap;html=1;aspect=fixed;fillColor=#ffe6cc;strokeColor=#d79b00;" parent="1" vertex="1">
          <mxGeometry x="80" y="1020" width="80" height="80" as="geometry" />
        </mxCell>
        <mxCell id="xJhnfynAFVNyftUKvXe--92" value="" style="ellipse;whiteSpace=wrap;html=1;aspect=fixed;fillColor=#ffe6cc;strokeColor=#d79b00;" parent="1" vertex="1">
          <mxGeometry x="80" y="1120" width="80" height="80" as="geometry" />
        </mxCell>
        <mxCell id="xJhnfynAFVNyftUKvXe--93" value="" style="ellipse;whiteSpace=wrap;html=1;aspect=fixed;fillColor=#ffe6cc;strokeColor=#d79b00;" parent="1" vertex="1">
          <mxGeometry x="80" y="1220" width="80" height="80" as="geometry" />
        </mxCell>
        <mxCell id="xJhnfynAFVNyftUKvXe--95" value="" style="ellipse;whiteSpace=wrap;html=1;aspect=fixed;fillColor=#f8cecc;strokeColor=#b85450;" parent="1" vertex="1">
          <mxGeometry x="680" y="1110" width="80" height="80" as="geometry" />
        </mxCell>
        <mxCell id="xJhnfynAFVNyftUKvXe--97" value="" style="endArrow=classic;html=1;rounded=0;exitX=1;exitY=0.5;exitDx=0;exitDy=0;entryX=0;entryY=0.5;entryDx=0;entryDy=0;" parent="1" source="xJhnfynAFVNyftUKvXe--91" target="xJhnfynAFVNyftUKvXe--67" edge="1">
          <mxGeometry width="50" height="50" relative="1" as="geometry">
            <mxPoint x="-270" y="1290" as="sourcePoint" />
            <mxPoint x="-220" y="1240" as="targetPoint" />
          </mxGeometry>
        </mxCell>
        <mxCell id="xJhnfynAFVNyftUKvXe--98" value="" style="endArrow=classic;html=1;rounded=0;exitX=1;exitY=0.5;exitDx=0;exitDy=0;" parent="1" source="xJhnfynAFVNyftUKvXe--91" target="xJhnfynAFVNyftUKvXe--68" edge="1">
          <mxGeometry width="50" height="50" relative="1" as="geometry">
            <mxPoint x="180" y="1120" as="sourcePoint" />
            <mxPoint x="230" y="1070" as="targetPoint" />
          </mxGeometry>
        </mxCell>
        <mxCell id="xJhnfynAFVNyftUKvXe--99" value="" style="endArrow=classic;html=1;rounded=0;entryX=0;entryY=0.5;entryDx=0;entryDy=0;" parent="1" target="xJhnfynAFVNyftUKvXe--74" edge="1">
          <mxGeometry width="50" height="50" relative="1" as="geometry">
            <mxPoint x="160" y="1060" as="sourcePoint" />
            <mxPoint x="-130" y="1270" as="targetPoint" />
          </mxGeometry>
        </mxCell>
        <mxCell id="xJhnfynAFVNyftUKvXe--100" value="" style="endArrow=classic;html=1;rounded=0;entryX=0;entryY=0.5;entryDx=0;entryDy=0;" parent="1" target="xJhnfynAFVNyftUKvXe--84" edge="1">
          <mxGeometry width="50" height="50" relative="1" as="geometry">
            <mxPoint x="160" y="1060" as="sourcePoint" />
            <mxPoint x="-180" y="1350" as="targetPoint" />
          </mxGeometry>
        </mxCell>
        <mxCell id="xJhnfynAFVNyftUKvXe--101" value="" style="endArrow=classic;html=1;rounded=0;exitX=1;exitY=0.5;exitDx=0;exitDy=0;entryX=0;entryY=0.5;entryDx=0;entryDy=0;" parent="1" source="xJhnfynAFVNyftUKvXe--91" target="xJhnfynAFVNyftUKvXe--85" edge="1">
          <mxGeometry width="50" height="50" relative="1" as="geometry">
            <mxPoint x="-220" y="1360" as="sourcePoint" />
            <mxPoint x="-170" y="1310" as="targetPoint" />
          </mxGeometry>
        </mxCell>
        <mxCell id="xJhnfynAFVNyftUKvXe--102" value="" style="endArrow=classic;html=1;rounded=0;exitX=1;exitY=0.5;exitDx=0;exitDy=0;entryX=0;entryY=0.5;entryDx=0;entryDy=0;" parent="1" source="xJhnfynAFVNyftUKvXe--92" target="xJhnfynAFVNyftUKvXe--67" edge="1">
          <mxGeometry width="50" height="50" relative="1" as="geometry">
            <mxPoint x="-220" y="1380" as="sourcePoint" />
            <mxPoint x="-170" y="1330" as="targetPoint" />
          </mxGeometry>
        </mxCell>
        <mxCell id="xJhnfynAFVNyftUKvXe--103" value="" style="endArrow=classic;html=1;rounded=0;entryX=0;entryY=0.5;entryDx=0;entryDy=0;" parent="1" target="xJhnfynAFVNyftUKvXe--68" edge="1">
          <mxGeometry width="50" height="50" relative="1" as="geometry">
            <mxPoint x="160" y="1160" as="sourcePoint" />
            <mxPoint x="-150" y="1300" as="targetPoint" />
          </mxGeometry>
        </mxCell>
        <mxCell id="xJhnfynAFVNyftUKvXe--104" value="" style="endArrow=classic;html=1;rounded=0;entryX=0;entryY=0.5;entryDx=0;entryDy=0;" parent="1" target="xJhnfynAFVNyftUKvXe--74" edge="1">
          <mxGeometry width="50" height="50" relative="1" as="geometry">
            <mxPoint x="160" y="1160" as="sourcePoint" />
            <mxPoint x="-280" y="1290" as="targetPoint" />
          </mxGeometry>
        </mxCell>
        <mxCell id="xJhnfynAFVNyftUKvXe--105" value="" style="endArrow=classic;html=1;rounded=0;exitX=1;exitY=0.5;exitDx=0;exitDy=0;entryX=0;entryY=0.5;entryDx=0;entryDy=0;" parent="1" source="xJhnfynAFVNyftUKvXe--92" target="xJhnfynAFVNyftUKvXe--84" edge="1">
          <mxGeometry width="50" height="50" relative="1" as="geometry">
            <mxPoint x="-120" y="1390" as="sourcePoint" />
            <mxPoint x="-70" y="1340" as="targetPoint" />
          </mxGeometry>
        </mxCell>
        <mxCell id="xJhnfynAFVNyftUKvXe--106" value="" style="endArrow=classic;html=1;rounded=0;entryX=0;entryY=0.5;entryDx=0;entryDy=0;" parent="1" target="xJhnfynAFVNyftUKvXe--85" edge="1">
          <mxGeometry width="50" height="50" relative="1" as="geometry">
            <mxPoint x="160" y="1160" as="sourcePoint" />
            <mxPoint x="-90" y="1340" as="targetPoint" />
          </mxGeometry>
        </mxCell>
        <mxCell id="xJhnfynAFVNyftUKvXe--107" value="" style="endArrow=classic;html=1;rounded=0;exitX=1;exitY=0.5;exitDx=0;exitDy=0;entryX=0.006;entryY=0.635;entryDx=0;entryDy=0;entryPerimeter=0;" parent="1" source="xJhnfynAFVNyftUKvXe--93" target="xJhnfynAFVNyftUKvXe--67" edge="1">
          <mxGeometry width="50" height="50" relative="1" as="geometry">
            <mxPoint x="-80" y="1390" as="sourcePoint" />
            <mxPoint x="-30" y="1340" as="targetPoint" />
          </mxGeometry>
        </mxCell>
        <mxCell id="xJhnfynAFVNyftUKvXe--108" value="" style="endArrow=classic;html=1;rounded=0;entryX=-0.017;entryY=0.578;entryDx=0;entryDy=0;entryPerimeter=0;" parent="1" target="xJhnfynAFVNyftUKvXe--68" edge="1">
          <mxGeometry width="50" height="50" relative="1" as="geometry">
            <mxPoint x="160" y="1260" as="sourcePoint" />
            <mxPoint x="-80" y="1320" as="targetPoint" />
          </mxGeometry>
        </mxCell>
        <mxCell id="xJhnfynAFVNyftUKvXe--109" value="" style="endArrow=classic;html=1;rounded=0;exitX=1;exitY=0.5;exitDx=0;exitDy=0;entryX=0;entryY=0.5;entryDx=0;entryDy=0;" parent="1" source="xJhnfynAFVNyftUKvXe--93" target="xJhnfynAFVNyftUKvXe--74" edge="1">
          <mxGeometry width="50" height="50" relative="1" as="geometry">
            <mxPoint x="170" y="1330" as="sourcePoint" />
            <mxPoint x="220" y="1280" as="targetPoint" />
          </mxGeometry>
        </mxCell>
        <mxCell id="xJhnfynAFVNyftUKvXe--110" value="" style="endArrow=classic;html=1;rounded=0;exitX=1;exitY=0.5;exitDx=0;exitDy=0;entryX=0;entryY=0.5;entryDx=0;entryDy=0;" parent="1" source="xJhnfynAFVNyftUKvXe--93" target="xJhnfynAFVNyftUKvXe--84" edge="1">
          <mxGeometry width="50" height="50" relative="1" as="geometry">
            <mxPoint x="-80" y="1370" as="sourcePoint" />
            <mxPoint x="-30" y="1320" as="targetPoint" />
          </mxGeometry>
        </mxCell>
        <mxCell id="xJhnfynAFVNyftUKvXe--111" value="" style="endArrow=classic;html=1;rounded=0;exitX=1;exitY=0.5;exitDx=0;exitDy=0;" parent="1" source="xJhnfynAFVNyftUKvXe--93" edge="1">
          <mxGeometry width="50" height="50" relative="1" as="geometry">
            <mxPoint x="-100" y="1390" as="sourcePoint" />
            <mxPoint x="280" y="1350" as="targetPoint" />
          </mxGeometry>
        </mxCell>
        <mxCell id="xJhnfynAFVNyftUKvXe--112" value="" style="endArrow=classic;html=1;rounded=0;exitX=1;exitY=0.5;exitDx=0;exitDy=0;" parent="1" source="xJhnfynAFVNyftUKvXe--67" target="xJhnfynAFVNyftUKvXe--86" edge="1">
          <mxGeometry width="50" height="50" relative="1" as="geometry">
            <mxPoint x="380" y="1180" as="sourcePoint" />
            <mxPoint x="430" y="1130" as="targetPoint" />
          </mxGeometry>
        </mxCell>
        <mxCell id="xJhnfynAFVNyftUKvXe--113" value="" style="endArrow=classic;html=1;rounded=0;entryX=0;entryY=0.5;entryDx=0;entryDy=0;" parent="1" target="xJhnfynAFVNyftUKvXe--87" edge="1">
          <mxGeometry width="50" height="50" relative="1" as="geometry">
            <mxPoint x="360" y="950" as="sourcePoint" />
            <mxPoint x="-50" y="1320" as="targetPoint" />
          </mxGeometry>
        </mxCell>
        <mxCell id="xJhnfynAFVNyftUKvXe--114" value="" style="endArrow=classic;html=1;rounded=0;exitX=1;exitY=0.5;exitDx=0;exitDy=0;entryX=0;entryY=0.5;entryDx=0;entryDy=0;" parent="1" source="xJhnfynAFVNyftUKvXe--67" target="xJhnfynAFVNyftUKvXe--88" edge="1">
          <mxGeometry width="50" height="50" relative="1" as="geometry">
            <mxPoint x="380" y="1250" as="sourcePoint" />
            <mxPoint x="430" y="1200" as="targetPoint" />
          </mxGeometry>
        </mxCell>
        <mxCell id="xJhnfynAFVNyftUKvXe--115" value="" style="endArrow=classic;html=1;rounded=0;entryX=0;entryY=0.5;entryDx=0;entryDy=0;" parent="1" target="xJhnfynAFVNyftUKvXe--89" edge="1">
          <mxGeometry width="50" height="50" relative="1" as="geometry">
            <mxPoint x="360" y="950" as="sourcePoint" />
            <mxPoint x="420" y="1170" as="targetPoint" />
          </mxGeometry>
        </mxCell>
        <mxCell id="xJhnfynAFVNyftUKvXe--116" value="" style="endArrow=classic;html=1;rounded=0;entryX=0;entryY=0.5;entryDx=0;entryDy=0;" parent="1" target="xJhnfynAFVNyftUKvXe--90" edge="1">
          <mxGeometry width="50" height="50" relative="1" as="geometry">
            <mxPoint x="360" y="950" as="sourcePoint" />
            <mxPoint x="-90" y="1350" as="targetPoint" />
          </mxGeometry>
        </mxCell>
        <mxCell id="xJhnfynAFVNyftUKvXe--117" value="" style="endArrow=classic;html=1;rounded=0;exitX=1;exitY=0.5;exitDx=0;exitDy=0;entryX=0;entryY=0.5;entryDx=0;entryDy=0;" parent="1" source="xJhnfynAFVNyftUKvXe--68" target="xJhnfynAFVNyftUKvXe--86" edge="1">
          <mxGeometry width="50" height="50" relative="1" as="geometry">
            <mxPoint x="-110" y="1450" as="sourcePoint" />
            <mxPoint x="-60" y="1400" as="targetPoint" />
          </mxGeometry>
        </mxCell>
        <mxCell id="xJhnfynAFVNyftUKvXe--118" value="" style="endArrow=classic;html=1;rounded=0;exitX=1;exitY=0.5;exitDx=0;exitDy=0;" parent="1" source="xJhnfynAFVNyftUKvXe--68" edge="1">
          <mxGeometry width="50" height="50" relative="1" as="geometry">
            <mxPoint x="160" y="1410" as="sourcePoint" />
            <mxPoint x="480" y="1050" as="targetPoint" />
          </mxGeometry>
        </mxCell>
        <mxCell id="xJhnfynAFVNyftUKvXe--119" value="" style="endArrow=classic;html=1;rounded=0;" parent="1" edge="1">
          <mxGeometry width="50" height="50" relative="1" as="geometry">
            <mxPoint x="360" y="1050" as="sourcePoint" />
            <mxPoint x="480" y="1150" as="targetPoint" />
          </mxGeometry>
        </mxCell>
        <mxCell id="xJhnfynAFVNyftUKvXe--120" value="" style="endArrow=classic;html=1;rounded=0;exitX=1;exitY=0.5;exitDx=0;exitDy=0;entryX=0;entryY=0.5;entryDx=0;entryDy=0;" parent="1" source="xJhnfynAFVNyftUKvXe--68" target="xJhnfynAFVNyftUKvXe--89" edge="1">
          <mxGeometry width="50" height="50" relative="1" as="geometry">
            <mxPoint x="380" y="1350" as="sourcePoint" />
            <mxPoint x="430" y="1300" as="targetPoint" />
          </mxGeometry>
        </mxCell>
        <mxCell id="xJhnfynAFVNyftUKvXe--121" value="" style="endArrow=classic;html=1;rounded=0;entryX=0;entryY=0.5;entryDx=0;entryDy=0;" parent="1" target="xJhnfynAFVNyftUKvXe--90" edge="1">
          <mxGeometry width="50" height="50" relative="1" as="geometry">
            <mxPoint x="360" y="1050" as="sourcePoint" />
            <mxPoint x="400" y="1310" as="targetPoint" />
          </mxGeometry>
        </mxCell>
        <mxCell id="xJhnfynAFVNyftUKvXe--122" value="" style="endArrow=classic;html=1;rounded=0;exitX=1;exitY=0.5;exitDx=0;exitDy=0;" parent="1" source="xJhnfynAFVNyftUKvXe--74" edge="1">
          <mxGeometry width="50" height="50" relative="1" as="geometry">
            <mxPoint x="390" y="1400" as="sourcePoint" />
            <mxPoint x="480" y="950" as="targetPoint" />
          </mxGeometry>
        </mxCell>
        <mxCell id="xJhnfynAFVNyftUKvXe--123" value="" style="endArrow=classic;html=1;rounded=0;exitX=1;exitY=0.5;exitDx=0;exitDy=0;entryX=0;entryY=0.5;entryDx=0;entryDy=0;" parent="1" source="xJhnfynAFVNyftUKvXe--74" target="xJhnfynAFVNyftUKvXe--87" edge="1">
          <mxGeometry width="50" height="50" relative="1" as="geometry">
            <mxPoint x="380" y="1360" as="sourcePoint" />
            <mxPoint x="430" y="1310" as="targetPoint" />
          </mxGeometry>
        </mxCell>
        <mxCell id="xJhnfynAFVNyftUKvXe--124" value="" style="endArrow=classic;html=1;rounded=0;entryX=0;entryY=0.5;entryDx=0;entryDy=0;" parent="1" target="xJhnfynAFVNyftUKvXe--88" edge="1">
          <mxGeometry width="50" height="50" relative="1" as="geometry">
            <mxPoint x="360" y="1150" as="sourcePoint" />
            <mxPoint x="430" y="1320" as="targetPoint" />
          </mxGeometry>
        </mxCell>
        <mxCell id="xJhnfynAFVNyftUKvXe--125" value="" style="endArrow=classic;html=1;rounded=0;" parent="1" edge="1">
          <mxGeometry width="50" height="50" relative="1" as="geometry">
            <mxPoint x="360" y="1150" as="sourcePoint" />
            <mxPoint x="480" y="1250" as="targetPoint" />
          </mxGeometry>
        </mxCell>
        <mxCell id="xJhnfynAFVNyftUKvXe--126" value="" style="endArrow=classic;html=1;rounded=0;entryX=0;entryY=0.5;entryDx=0;entryDy=0;" parent="1" target="xJhnfynAFVNyftUKvXe--90" edge="1">
          <mxGeometry width="50" height="50" relative="1" as="geometry">
            <mxPoint x="360" y="1150" as="sourcePoint" />
            <mxPoint x="460" y="1380" as="targetPoint" />
          </mxGeometry>
        </mxCell>
        <mxCell id="xJhnfynAFVNyftUKvXe--127" value="" style="endArrow=classic;html=1;rounded=0;exitX=1;exitY=0.5;exitDx=0;exitDy=0;" parent="1" source="xJhnfynAFVNyftUKvXe--84" edge="1">
          <mxGeometry width="50" height="50" relative="1" as="geometry">
            <mxPoint x="410" y="1420" as="sourcePoint" />
            <mxPoint x="480" y="950" as="targetPoint" />
          </mxGeometry>
        </mxCell>
        <mxCell id="xJhnfynAFVNyftUKvXe--128" value="" style="endArrow=classic;html=1;rounded=0;exitX=1;exitY=0.5;exitDx=0;exitDy=0;entryX=0;entryY=0.5;entryDx=0;entryDy=0;" parent="1" source="xJhnfynAFVNyftUKvXe--84" target="xJhnfynAFVNyftUKvXe--87" edge="1">
          <mxGeometry width="50" height="50" relative="1" as="geometry">
            <mxPoint x="410" y="1380" as="sourcePoint" />
            <mxPoint x="460" y="1330" as="targetPoint" />
          </mxGeometry>
        </mxCell>
        <mxCell id="xJhnfynAFVNyftUKvXe--129" value="" style="endArrow=classic;html=1;rounded=0;" parent="1" edge="1">
          <mxGeometry width="50" height="50" relative="1" as="geometry">
            <mxPoint x="360" y="1250" as="sourcePoint" />
            <mxPoint x="480" y="1150" as="targetPoint" />
          </mxGeometry>
        </mxCell>
        <mxCell id="xJhnfynAFVNyftUKvXe--130" value="" style="endArrow=classic;html=1;rounded=0;exitX=1;exitY=0.5;exitDx=0;exitDy=0;entryX=0;entryY=0.5;entryDx=0;entryDy=0;" parent="1" source="xJhnfynAFVNyftUKvXe--84" target="xJhnfynAFVNyftUKvXe--89" edge="1">
          <mxGeometry width="50" height="50" relative="1" as="geometry">
            <mxPoint x="400" y="1400" as="sourcePoint" />
            <mxPoint x="450" y="1350" as="targetPoint" />
          </mxGeometry>
        </mxCell>
        <mxCell id="xJhnfynAFVNyftUKvXe--131" value="" style="endArrow=classic;html=1;rounded=0;exitX=1;exitY=0.5;exitDx=0;exitDy=0;" parent="1" source="xJhnfynAFVNyftUKvXe--84" edge="1">
          <mxGeometry width="50" height="50" relative="1" as="geometry">
            <mxPoint x="380" y="1430" as="sourcePoint" />
            <mxPoint x="480" y="1350" as="targetPoint" />
          </mxGeometry>
        </mxCell>
        <mxCell id="xJhnfynAFVNyftUKvXe--132" value="" style="endArrow=classic;html=1;rounded=0;exitX=1;exitY=0.5;exitDx=0;exitDy=0;" parent="1" source="xJhnfynAFVNyftUKvXe--85" edge="1">
          <mxGeometry width="50" height="50" relative="1" as="geometry">
            <mxPoint x="390" y="1420" as="sourcePoint" />
            <mxPoint x="480" y="950" as="targetPoint" />
          </mxGeometry>
        </mxCell>
        <mxCell id="xJhnfynAFVNyftUKvXe--133" value="" style="endArrow=classic;html=1;rounded=0;exitX=1;exitY=0.5;exitDx=0;exitDy=0;" parent="1" source="xJhnfynAFVNyftUKvXe--85" edge="1">
          <mxGeometry width="50" height="50" relative="1" as="geometry">
            <mxPoint x="370" y="1430" as="sourcePoint" />
            <mxPoint x="480" y="1050" as="targetPoint" />
          </mxGeometry>
        </mxCell>
        <mxCell id="xJhnfynAFVNyftUKvXe--134" value="" style="endArrow=classic;html=1;rounded=0;exitX=1;exitY=0.5;exitDx=0;exitDy=0;" parent="1" source="xJhnfynAFVNyftUKvXe--85" edge="1">
          <mxGeometry width="50" height="50" relative="1" as="geometry">
            <mxPoint x="410" y="1430" as="sourcePoint" />
            <mxPoint x="480" y="1150" as="targetPoint" />
          </mxGeometry>
        </mxCell>
        <mxCell id="xJhnfynAFVNyftUKvXe--135" value="" style="endArrow=classic;html=1;rounded=0;" parent="1" edge="1">
          <mxGeometry width="50" height="50" relative="1" as="geometry">
            <mxPoint x="360" y="1350" as="sourcePoint" />
            <mxPoint x="480" y="1250" as="targetPoint" />
          </mxGeometry>
        </mxCell>
        <mxCell id="xJhnfynAFVNyftUKvXe--136" value="" style="endArrow=classic;html=1;rounded=0;entryX=0;entryY=0.5;entryDx=0;entryDy=0;" parent="1" target="xJhnfynAFVNyftUKvXe--90" edge="1">
          <mxGeometry width="50" height="50" relative="1" as="geometry">
            <mxPoint x="360" y="1350" as="sourcePoint" />
            <mxPoint x="430" y="1400" as="targetPoint" />
          </mxGeometry>
        </mxCell>
        <mxCell id="xJhnfynAFVNyftUKvXe--137" value="" style="endArrow=classic;html=1;rounded=0;exitX=1;exitY=0.5;exitDx=0;exitDy=0;entryX=0;entryY=0.5;entryDx=0;entryDy=0;" parent="1" source="xJhnfynAFVNyftUKvXe--86" target="xJhnfynAFVNyftUKvXe--95" edge="1">
          <mxGeometry width="50" height="50" relative="1" as="geometry">
            <mxPoint x="620" y="1290" as="sourcePoint" />
            <mxPoint x="670" y="1240" as="targetPoint" />
          </mxGeometry>
        </mxCell>
        <mxCell id="xJhnfynAFVNyftUKvXe--138" value="" style="endArrow=classic;html=1;rounded=0;exitX=1;exitY=0.5;exitDx=0;exitDy=0;" parent="1" source="xJhnfynAFVNyftUKvXe--87" edge="1">
          <mxGeometry width="50" height="50" relative="1" as="geometry">
            <mxPoint x="620" y="1260" as="sourcePoint" />
            <mxPoint x="680" y="1150" as="targetPoint" />
          </mxGeometry>
        </mxCell>
        <mxCell id="xJhnfynAFVNyftUKvXe--139" value="" style="endArrow=classic;html=1;rounded=0;exitX=1;exitY=0.5;exitDx=0;exitDy=0;entryX=0;entryY=0.5;entryDx=0;entryDy=0;" parent="1" source="xJhnfynAFVNyftUKvXe--88" target="xJhnfynAFVNyftUKvXe--95" edge="1">
          <mxGeometry width="50" height="50" relative="1" as="geometry">
            <mxPoint x="570" y="1300" as="sourcePoint" />
            <mxPoint x="620" y="1250" as="targetPoint" />
          </mxGeometry>
        </mxCell>
        <mxCell id="xJhnfynAFVNyftUKvXe--140" value="" style="endArrow=classic;html=1;rounded=0;exitX=1;exitY=0.5;exitDx=0;exitDy=0;entryX=0;entryY=0.5;entryDx=0;entryDy=0;" parent="1" source="xJhnfynAFVNyftUKvXe--89" target="xJhnfynAFVNyftUKvXe--95" edge="1">
          <mxGeometry width="50" height="50" relative="1" as="geometry">
            <mxPoint x="610" y="1240" as="sourcePoint" />
            <mxPoint x="660" y="1190" as="targetPoint" />
          </mxGeometry>
        </mxCell>
        <mxCell id="xJhnfynAFVNyftUKvXe--141" value="" style="endArrow=classic;html=1;rounded=0;exitX=1;exitY=0.5;exitDx=0;exitDy=0;entryX=-0.006;entryY=0.578;entryDx=0;entryDy=0;entryPerimeter=0;" parent="1" source="xJhnfynAFVNyftUKvXe--90" target="xJhnfynAFVNyftUKvXe--95" edge="1">
          <mxGeometry width="50" height="50" relative="1" as="geometry">
            <mxPoint x="590" y="1350" as="sourcePoint" />
            <mxPoint x="640" y="1300" as="targetPoint" />
          </mxGeometry>
        </mxCell>
        <mxCell id="xJhnfynAFVNyftUKvXe--142" value="" style="endArrow=classic;html=1;rounded=0;exitX=1;exitY=0.017;exitDx=0;exitDy=0;exitPerimeter=0;entryX=0;entryY=0.5;entryDx=0;entryDy=0;fillColor=#6a00ff;strokeColor=#3700CC;" parent="1" target="xJhnfynAFVNyftUKvXe--143" edge="1">
          <mxGeometry width="50" height="50" relative="1" as="geometry">
            <mxPoint x="785" y="918" as="sourcePoint" />
            <mxPoint x="235" y="820" as="targetPoint" />
          </mxGeometry>
        </mxCell>
        <mxCell id="xJhnfynAFVNyftUKvXe--143" value="Q-Value Action 1" style="rounded=1;whiteSpace=wrap;html=1;fillColor=#d5e8d4;strokeColor=#82b366;fontSize=30;" parent="1" vertex="1">
          <mxGeometry x="920" y="880" width="280" height="80" as="geometry" />
        </mxCell>
        <mxCell id="xJhnfynAFVNyftUKvXe--145" style="edgeStyle=orthogonalEdgeStyle;rounded=0;orthogonalLoop=1;jettySize=auto;html=1;exitX=0.5;exitY=0;exitDx=0;exitDy=0;entryX=0.5;entryY=1;entryDx=0;entryDy=0;" parent="1" source="xJhnfynAFVNyftUKvXe--58" target="xJhnfynAFVNyftUKvXe--58" edge="1">
          <mxGeometry relative="1" as="geometry" />
        </mxCell>
        <mxCell id="xJhnfynAFVNyftUKvXe--146" value="Q-Value Action N" style="rounded=1;whiteSpace=wrap;html=1;fillColor=#d5e8d4;strokeColor=#82b366;fontSize=30;" parent="1" vertex="1">
          <mxGeometry x="920" y="1280" width="280" height="80" as="geometry" />
        </mxCell>
        <mxCell id="xJhnfynAFVNyftUKvXe--147" value="" style="endArrow=classic;html=1;rounded=0;exitX=1.007;exitY=0.774;exitDx=0;exitDy=0;exitPerimeter=0;entryX=0;entryY=0.5;entryDx=0;entryDy=0;fillColor=#6a00ff;strokeColor=#3700CC;" parent="1" target="xJhnfynAFVNyftUKvXe--146" edge="1" source="xJhnfynAFVNyftUKvXe--63">
          <mxGeometry width="50" height="50" relative="1" as="geometry">
            <mxPoint x="785" y="1328" as="sourcePoint" />
            <mxPoint x="235" y="1230" as="targetPoint" />
          </mxGeometry>
        </mxCell>
        <mxCell id="xJhnfynAFVNyftUKvXe--148" value="Q-Value Action 2" style="rounded=1;whiteSpace=wrap;html=1;fillColor=#d5e8d4;strokeColor=#82b366;fontSize=30;" parent="1" vertex="1">
          <mxGeometry x="920" y="1000" width="280" height="80" as="geometry" />
        </mxCell>
        <mxCell id="xJhnfynAFVNyftUKvXe--149" value="" style="endArrow=classic;html=1;rounded=0;exitX=1;exitY=0.017;exitDx=0;exitDy=0;exitPerimeter=0;entryX=0;entryY=0.5;entryDx=0;entryDy=0;fillColor=#6a00ff;strokeColor=#3700CC;" parent="1" target="xJhnfynAFVNyftUKvXe--148" edge="1">
          <mxGeometry width="50" height="50" relative="1" as="geometry">
            <mxPoint x="785" y="1038" as="sourcePoint" />
            <mxPoint x="235" y="940" as="targetPoint" />
          </mxGeometry>
        </mxCell>
        <mxCell id="xJhnfynAFVNyftUKvXe--152" value="&lt;font style=&quot;font-size: 30px;&quot;&gt;—&lt;/font&gt;" style="text;html=1;strokeColor=none;fillColor=none;align=center;verticalAlign=middle;whiteSpace=wrap;rounded=0;fontStyle=1" parent="1" vertex="1">
          <mxGeometry x="1030" y="1160" width="60" height="30" as="geometry" />
        </mxCell>
        <mxCell id="xJhnfynAFVNyftUKvXe--154" value="&lt;font style=&quot;font-size: 30px;&quot;&gt;—&lt;/font&gt;" style="text;html=1;strokeColor=none;fillColor=none;align=center;verticalAlign=middle;whiteSpace=wrap;rounded=0;fontStyle=1" parent="1" vertex="1">
          <mxGeometry x="1030" y="1190" width="60" height="30" as="geometry" />
        </mxCell>
        <mxCell id="xJhnfynAFVNyftUKvXe--155" value="&lt;font style=&quot;font-size: 30px;&quot;&gt;—&lt;/font&gt;" style="text;html=1;strokeColor=none;fillColor=none;align=center;verticalAlign=middle;whiteSpace=wrap;rounded=0;fontStyle=1" parent="1" vertex="1">
          <mxGeometry x="1030" y="1130" width="60" height="30" as="geometry" />
        </mxCell>
      </root>
    </mxGraphModel>
  </diagram>
</mxfile>
